HIERARCHY
ROOT Hips
{
  OFFSET 55.8376 84.0133 12.8177
  CHANNELS 6 Xposition Yposition Zposition Zrotation Xrotation Yrotation
  JOINT spine
  {
    OFFSET 0 5.95438 0.342407
    CHANNELS 3 Zrotation Xrotation Yrotation
    JOINT spine1
    {
      OFFSET 0 8.85602 0
      CHANNELS 3 Zrotation Xrotation Yrotation
      JOINT spine2
      {
        OFFSET 0 8.48567 0
        CHANNELS 3 Zrotation Xrotation Yrotation
        JOINT Neck
        {
          OFFSET 0 21.7863 1.0387
          CHANNELS 3 Zrotation Xrotation Yrotation
          JOINT Head
          {
            OFFSET 0 6.5822 0
            CHANNELS 3 Zrotation Xrotation Yrotation
            End Site
            {
              OFFSET 0 15.9326 -5.25436
            }
          }
        }
        JOINT RightShoulder
        {
          OFFSET -3.57307 9.16386 -0.497525
          CHANNELS 3 Zrotation Xrotation Yrotation
          JOINT RightArm
          {
            OFFSET 0 12.0192 0
            CHANNELS 3 Zrotation Xrotation Yrotation
            JOINT RightArmRoll
            {
              OFFSET 0 6.06755 0
              CHANNELS 3 Zrotation Xrotation Yrotation
              JOINT RightForeArm
              {
                OFFSET 0 17.6726 0
                CHANNELS 3 Zrotation Xrotation Yrotation
                JOINT RightForeArmRoll
                {
                  OFFSET 0 6.80872 0
                  CHANNELS 3 Zrotation Xrotation Yrotation
                  JOINT RightHand
                  {
                    OFFSET 0 13.6636 0
                    CHANNELS 3 Zrotation Xrotation Yrotation
                    End Site
                    {
                      OFFSET 0 0 0
                    }
                  }
                }
              }
            }
          }
        }
        JOINT LeftShoulder
        {
          OFFSET 3.57307 9.16386 -0.497525
          CHANNELS 3 Zrotation Xrotation Yrotation
          JOINT LeftArm
          {
            OFFSET 0 12.0192 0
            CHANNELS 3 Zrotation Xrotation Yrotation
            JOINT LeftArmRoll
            {
              OFFSET 0 6.06755 0
              CHANNELS 3 Zrotation Xrotation Yrotation
              JOINT LeftForeArm
              {
                OFFSET 0 17.6726 0
                CHANNELS 3 Zrotation Xrotation Yrotation
                JOINT LeftForeArmRoll
                {
                  OFFSET 0 6.80872 0
                  CHANNELS 3 Zrotation Xrotation Yrotation
                  JOINT LeftHand
                  {
                    OFFSET 0 13.6636 0
                    CHANNELS 3 Zrotation Xrotation Yrotation
                    End Site
                    {
                      OFFSET 0 0 0
                    }
                  }
                }
              }
            }
          }
        }
      }
    }
  }
  JOINT RightUpLeg
  {
    OFFSET -5.27774 -0.967797 -0.811858
    CHANNELS 3 Zrotation Xrotation Yrotation
    JOINT RightUpLegRoll
    {
      OFFSET 0 16.0214 0
      CHANNELS 3 Zrotation Xrotation Yrotation
      JOINT RightLeg
      {
        OFFSET 0 -19.8401 0
        CHANNELS 3 Zrotation Xrotation Yrotation
        JOINT RightLegRoll
        {
          OFFSET 0 19.905 0
          CHANNELS 3 Zrotation Xrotation Yrotation
          JOINT RightFoot
          {
            OFFSET 0 16.5675 0
            CHANNELS 3 Zrotation Xrotation Yrotation
            JOINT RightToeBase
            {
              OFFSET 0 13.8496 0
              CHANNELS 3 Zrotation Xrotation Yrotation
              End Site
              {
                OFFSET 0.00587034 6.70728 -0.773117
              }
            }
          }
        }
      }
    }
  }
  JOINT LeftUpLeg
  {
    OFFSET 5.27774 -0.967797 -0.811858
    CHANNELS 3 Zrotation Xrotation Yrotation
    JOINT LeftUpLegRoll
    {
      OFFSET 0 16.0215 0
      CHANNELS 3 Zrotation Xrotation Yrotation
      JOINT LeftLeg
      {
        OFFSET 0 19.84 0
        CHANNELS 3 Zrotation Xrotation Yrotation
        JOINT LeftLegRoll
        {
          OFFSET 0 20.089 0
          CHANNELS 3 Zrotation Xrotation Yrotation
          JOINT LeftFoot
          {
            OFFSET 0 16.3835 0
            CHANNELS 3 Zrotation Xrotation Yrotation
            JOINT LeftToeBase
            {
              OFFSET 0 13.8496 0
              CHANNELS 3 Zrotation Xrotation Yrotation
              End Site
              {
                OFFSET -0.0263083 6.70728 -0.773117
              }
            }
          }
        }
      }
    }
  }
}
MOTION
Frames: 13
Frame Time: 0.00208333
52.5248 83.7078 0.514473 2.59237 -4.80416 0.32599 -0.131696 0.940076 0.0682366 -0.266096 5.8828 0.14839 -0.268298 7.52787 0.153633 -13.3999 26.4162 2.88195 12.4774 3.90497 -2.51967 60.3211 -0.417144 -0.359942 122.367 18.2474 -22.9336 2.05324e-005 4.49497e-007 3.49626e-006 -3.64277 -0.0323567 -1.99274 2.43747e-005 1.23485e-006 -3.01161 8.03009 -4.95136 0.697632 -60.6588 -6.19574 3.89406 -126.012 19.934 26.0458 -1.03368e-014 6.57639e-007 3.18055e-015 3.64169 -0.0256165 1.9925 -5.98048e-007 -1.85886e-006 3.0116 -8.03008 -4.9514 -0.697626 175.251 3.9179 5.45655 180 7.01554e-015 178.955 175.883 10.789 -179.951 -3.09886e-007 7.60863e-007 0.14383 -19.1543 68.602 20.0874 8.14682 25.2321 -3.49214 178.48 2.36175 1.8286 4.54188e-006 -4.6773e-006 -1.05708 -1.52027 -11.1508 0.19295 -6.42456e-007 1.24004e-006 -0.161788 19.1962 68.7307 -20.1551 -8.12367 25.2334 3.48227 
52.5097 83.7051 0.502994 2.58407 -4.74721 0.322295 -0.130398 0.937333 0.0681998 -0.263491 5.87732 0.147779 -0.265692 7.52239 0.152903 -13.4164 26.2288 2.86992 12.5385 3.86604 -2.51118 60.3113 -0.405636 -0.351804 122.375 18.2629 -22.9473 2.05324e-005 4.49497e-007 3.49626e-006 -3.64277 -0.0323567 -1.99274 2.43747e-005 1.23485e-006 -3.01161 8.03009 -4.95136 0.697632 -60.6662 -6.2005 3.89733 -125.994 19.9449 26.0316 1.19271e-014 6.57639e-007 6.36111e-015 3.64169 -0.0256165 1.9925 -5.98048e-007 -1.85886e-006 3.0116 -8.03008 -4.9514 -0.697626 175.264 3.98321 5.44001 180 7.01554e-015 178.956 175.889 10.7942 -179.952 -3.09886e-007 7.60863e-007 0.14383 -19.1532 68.6008 20.0862 8.14682 25.2321 -3.49214 178.486 2.43863 1.83248 4.54188e-006 -4.6773e-006 -1.0561 -1.51922 -11.1741 0.193688 -6.42456e-007 1.24004e-006 -0.162136 19.1979 68.7327 -20.157 -8.12367 25.2334 3.48227 
52.5048 83.7028 0.484318 2.57638 -4.69126 0.318493 -0.12917 0.934726 0.0681594 -0.261026 5.87211 0.147121 -0.263225 7.51717 0.152125 -13.4347 26.0409 2.8588 12.6019 3.82755 -2.50247 60.3006 -0.394372 -0.34371 122.385 18.2782 -22.962 2.05324e-005 4.49497e-007 3.49626e-006 -3.64277 -0.0323567 -1.99274 2.43747e-005 1.23485e-006 -3.01161 8.03009 -4.95136 0.697632 -60.6747 -6.20549 3.90079 -125.976 19.9557 26.0166 3.97569e-016 6.57639e-007 3.18055e-015 3.64169 -0.0256165 1.9925 -5.98048e-007 -1.85886e-006 3.0116 -8.03008 -4.9514 -0.697626 175.276 4.04771 5.42441 180 7.01555e-015 178.956 175.894 10.8001 -179.952 -3.09886e-007 7.60863e-007 0.14383 -19.1524 68.5998 20.0853 8.14682 25.2321 -3.49214 178.492 2.51393 1.83665 4.54188e-006 -4.6773e-006 -1.05514 -1.51822 -11.1967 0.194419 -6.42456e-007 1.24004e-006 -0.162476 19.1998 68.7348 -20.1589 -8.12367 25.2334 3.48227 
52.4995 83.7001 0.471406 2.56913 -4.636 0.314616 -0.127991 0.932216 0.0681165 -0.258658 5.86709 0.14643 -0.260856 7.51215 0.151313 -13.4543 25.8527 2.84833 12.6668 3.78935 -2.49361 60.2893 -0.383278 -0.335647 122.395 18.2933 -22.9773 2.05324e-005 4.49497e-007 3.49626e-006 -3.64277 -0.0323567 -1.99274 2.43747e-005 1.23485e-006 -3.01161 8.03009 -4.95136 0.697632 -60.684 -6.21064 3.90439 -125.957 19.9666 26.0012 1.98785e-015 6.57639e-007 6.36111e-015 3.64169 -0.0256165 1.9925 -5.98048e-007 -1.85886e-006 3.0116 -8.03008 -4.9514 -0.697626 175.287 4.11166 5.40948 180 7.01555e-015 178.957 175.899 10.8065 -179.953 -3.09886e-007 7.60863e-007 0.143831 -19.1517 68.599 20.0845 8.14682 25.2321 -3.49214 178.497 2.58812 1.84104 4.54188e-006 -4.6773e-006 -1.05419 -1.51726 -11.2188 0.195144 -6.42456e-007 1.24004e-006 -0.162809 19.2016 68.7368 -20.1609 -8.12367 25.2334 3.48227 
52.5152 83.7039 0.479922 2.56214 -4.58113 0.310697 -0.126839 0.92976 0.0680722 -0.256346 5.86218 0.145719 -0.258543 7.50724 0.150481 -13.4746 25.6643 2.83825 12.7327 3.75132 -2.48467 60.2776 -0.372283 -0.327602 122.405 18.3083 -22.9929 2.05324e-005 4.49497e-007 3.49626e-006 -3.64277 -0.0323567 -1.99274 2.43747e-005 1.23485e-006 -3.01161 8.03009 -4.95136 0.697632 -60.6936 -6.21588 3.90806 -125.938 19.9775 25.9855 5.96354e-015 6.57639e-007 6.36111e-015 3.64169 -0.0256165 1.9925 -5.98048e-007 -1.85886e-006 3.0116 -8.03008 -4.9514 -0.697626 175.298 4.17529 5.39493 180 7.01555e-015 178.958 175.904 10.8131 -179.953 -3.09886e-007 7.60863e-007 0.143831 -19.1511 68.5984 20.0839 8.14682 25.2321 -3.49214 178.501 2.66169 1.84554 4.54188e-006 -4.6773e-006 -1.05324 -1.51632 -11.2406 0.195866 -6.42456e-007 1.24004e-006 -0.163139 19.2035 68.7389 -20.1629 -8.12367 25.2334 3.48227 
52.5095 83.6999 0.467401 2.55521 -4.52636 0.306767 -0.125695 0.927317 0.0680275 -0.254048 5.85729 0.145004 -0.256244 7.50236 0.149645 -13.4952 25.4758 2.82833 12.7988 3.71334 -2.47571 60.2659 -0.361312 -0.31956 122.416 18.3233 -23.0086 2.05324e-005 4.49497e-007 3.49626e-006 -3.64277 -0.0323567 -1.99274 2.43747e-005 1.23485e-006 -3.01161 8.03009 -4.95136 0.697632 -60.7034 -6.22115 3.91175 -125.918 19.9884 25.9697 0 6.57639e-007 -0 3.64169 -0.0256165 1.9925 -5.98048e-007 -1.85886e-006 3.0116 -8.03008 -4.9514 -0.697626 175.309 4.23885 5.38047 180 7.01555e-015 178.958 175.909 10.8199 -179.954 -3.09886e-007 7.60863e-007 0.143831 -19.1505 68.5977 20.0833 8.14682 25.2321 -3.49214 178.506 2.73509 1.85008 4.54188e-006 -4.6773e-006 -1.0523 -1.51539 -11.2624 0.196587 -6.42456e-007 1.24004e-006 -0.163468 19.2053 68.7409 -20.1649 -8.12367 25.2334 3.48227 
52.5179 83.6998 0.46259 2.54817 -4.4714 0.302861 -0.124536 0.924847 0.0679835 -0.251723 5.85235 0.144298 -0.253917 7.49742 0.148819 -13.5155 25.2875 2.81829 12.8645 3.67527 -2.46679 60.2543 -0.350292 -0.311511 122.426 18.3384 -23.0242 2.05324e-005 4.49497e-007 3.49626e-006 -3.64277 -0.0323567 -1.99274 2.43747e-005 1.23485e-006 -3.01161 8.03009 -4.95136 0.697632 -60.7129 -6.22637 3.9154 -125.899 19.9993 25.954 7.55382e-015 6.57639e-007 6.36111e-015 3.64169 -0.0256165 1.9925 -5.98048e-007 -1.85886e-006 3.0116 -8.03008 -4.9514 -0.697626 175.32 4.30256 5.36583 180 7.01555e-015 178.959 175.914 10.8265 -179.954 -3.09886e-007 7.60863e-007 0.143831 -19.1499 68.597 20.0827 8.14682 25.2321 -3.49214 178.51 2.80881 1.85456 4.54188e-006 -4.6773e-006 -1.05135 -1.51444 -11.2844 0.19731 -6.42456e-007 1.24004e-006 -0.163798 19.2072 68.743 -20.1669 -8.12367 25.2334 3.48227 
52.5209 83.6984 0.450936 2.54083 -4.41594 0.299009 -0.123343 0.922309 0.0679414 -0.249328 5.84728 0.143617 -0.251521 7.49235 0.148016 -13.535 25.0994 2.80791 12.929 3.63698 -2.45799 60.2431 -0.33915 -0.303439 122.436 18.3535 -23.0393 2.05324e-005 4.49497e-007 3.49626e-006 -3.64277 -0.0323567 -1.99274 2.43747e-005 1.23485e-006 -3.01161 8.03009 -4.95136 0.697632 -60.722 -6.23147 3.91896 -125.88 20.0101 25.9387 4.37326e-015 6.57639e-007 6.36111e-015 3.64169 -0.0256165 1.9925 -5.98048e-007 -1.85886e-006 3.0116 -8.03008 -4.9514 -0.697626 175.331 4.36668 5.35073 180 7.01555e-015 178.96 175.919 10.8327 -179.955 -3.09886e-007 7.60863e-007 0.143831 -19.1492 68.5962 20.0819 8.14682 25.2321 -3.49214 178.516 2.88331 1.8589 4.54188e-006 -4.6773e-006 -1.0504 -1.51347 -11.3066 0.198037 -6.42456e-007 1.24004e-006 -0.164134 19.209 68.7451 -20.1688 -8.12367 25.2334 3.48227 
52.4858 83.6922 0.41112 2.53301 -4.35968 0.295245 -0.122094 0.919662 0.067902 -0.246821 5.84199 0.142973 -0.249013 7.48706 0.147252 -13.5533 24.9116 2.79692 12.9918 3.59835 -2.44935 60.2326 -0.327812 -0.295332 122.445 18.3688 -23.0537 2.05324e-005 4.49497e-007 3.49626e-006 -3.64277 -0.0323567 -1.99274 2.43747e-005 1.23485e-006 -3.01161 8.03009 -4.95136 0.697632 -60.7301 -6.23639 3.92236 -125.862 20.021 25.924 -2.78299e-015 6.57639e-007 3.18055e-015 3.64169 -0.0256165 1.9925 -5.98048e-007 -1.85886e-006 3.0116 -8.03008 -4.9514 -0.697626 175.344 4.43145 5.33488 180 7.01555e-015 178.96 175.925 10.8384 -179.956 -3.09886e-007 7.60863e-007 0.143831 -19.1483 68.5951 20.0809 8.14682 25.2321 -3.49214 178.521 2.95909 1.86301 4.54188e-006 -4.6773e-006 -1.04943 -1.51245 -11.3294 0.198771 -6.42456e-007 1.24004e-006 -0.164476 19.2108 68.7471 -20.1708 -8.12367 25.2334 3.48227 
52.4864 83.6923 0.417887 2.52451 -4.30235 0.2916 -0.120768 0.916864 0.0678666 -0.244161 5.83639 0.142382 -0.246351 7.48146 0.146542 -13.5698 24.7244 2.78508 13.0521 3.55924 -2.44096 60.2231 -0.316206 -0.287178 122.453 18.3843 -23.0671 2.05324e-005 4.49497e-007 3.49626e-006 -3.64277 -0.0323567 -1.99274 2.43747e-005 1.23485e-006 -3.01161 8.03009 -4.95136 0.697632 -60.7372 -6.24106 3.92555 -125.844 20.0318 25.9101 6.36111e-015 6.57639e-007 3.18055e-015 3.64169 -0.0256165 1.9925 -5.98048e-007 -1.85886e-006 3.0116 -8.03008 -4.9514 -0.697626 175.358 4.4971 5.318 180 7.01556e-015 178.961 175.931 10.8434 -179.956 -3.09886e-007 7.60863e-007 0.143832 -19.147 68.5938 20.0796 8.14682 25.2321 -3.49214 178.528 3.0366 1.8668 4.54188e-006 -4.6773e-006 -1.04845 -1.51136 -11.353 0.199514 -6.42456e-007 1.24004e-006 -0.164828 19.2126 68.7491 -20.1727 -8.12367 25.2334 3.48227 
52.4847 83.6861 0.41754 2.51517 -4.24363 0.288109 -0.119345 0.913876 0.0678362 -0.241306 5.83042 0.141857 -0.243494 7.47549 0.145899 -13.584 24.5379 2.77215 13.1093 3.51953 -2.43287 60.2148 -0.304257 -0.278962 122.46 18.4001 -23.0793 2.05324e-005 4.49497e-007 3.49626e-006 -3.64277 -0.0323567 -1.99274 2.43747e-005 1.23485e-006 -3.01161 8.03009 -4.95136 0.697632 -60.7427 -6.24541 3.92848 -125.828 20.0426 25.8971 8.34896e-015 6.57639e-007 9.54166e-015 3.64169 -0.0256165 1.9925 -5.98048e-007 -1.85886e-006 3.0116 -8.03008 -4.9514 -0.697626 175.373 4.56388 5.29981 180 7.01556e-015 178.962 175.938 10.8473 -179.957 -3.09886e-007 7.60863e-007 0.143832 -19.1455 68.592 20.0779 8.14682 25.2321 -3.49214 178.535 3.11633 1.87018 4.54188e-006 -4.6773e-006 -1.04745 -1.5102 -11.3774 0.200268 -6.42456e-007 1.24004e-006 -0.165193 19.2143 68.751 -20.1745 -8.12367 25.2334 3.48227 
52.4827 83.6849 0.39959 2.50478 -4.18323 0.284802 -0.117804 0.910655 0.0678119 -0.238213 5.82398 0.141414 -0.2404 7.46905 0.145338 -13.5954 24.3521 2.75788 13.1627 3.47908 -2.42515 60.2079 -0.291894 -0.270672 122.465 18.4163 -23.09 2.05324e-005 4.49497e-007 3.49626e-006 -3.64277 -0.0323567 -1.99274 2.43747e-005 1.23485e-006 -3.01161 8.03009 -4.95136 0.697632 -60.7465 -6.24937 3.93108 -125.813 20.0532 25.8853 -5.56597e-015 6.57639e-007 -0 3.64169 -0.0256165 1.9925 -5.98048e-007 -1.85886e-006 3.0116 -8.03008 -4.9514 -0.697626 175.39 4.63202 5.28003 180 7.01556e-015 178.963 175.945 10.8501 -179.958 -3.09886e-007 7.60863e-007 0.143831 -19.1435 68.5897 20.0757 8.14682 25.2321 -3.49214 178.544 3.19875 1.87306 4.54188e-006 -4.6773e-006 -1.04643 -1.50893 -11.403 0.201035 -6.42456e-007 1.24004e-006 -0.165573 19.216 68.7529 -20.1763 -8.12367 25.2334 3.48227 
52.4758 83.6821 0.380121 2.49317 -4.12085 0.281713 -0.116124 0.907162 0.0677947 -0.234842 5.817 0.141066 -0.237026 7.46207 0.144874 -13.6037 24.1674 2.74204 13.2116 3.43777 -2.41786 60.2028 -0.279041 -0.262295 122.468 18.4328 -23.0989 2.05324e-005 4.49497e-007 3.49626e-006 -3.64277 -0.0323567 -1.99274 2.43747e-005 1.23485e-006 -3.01161 8.03009 -4.95136 0.697632 -60.7482 -6.25288 3.93331 -125.799 20.0639 25.8749 1.59028e-015 6.57639e-007 -0 3.64169 -0.0256165 1.9925 -5.98048e-007 -1.85886e-006 3.0116 -8.03008 -4.9514 -0.697626 175.409 4.70178 5.25838 180 7.01556e-015 178.963 175.954 10.8515 -179.959 -3.09886e-007 7.60863e-007 0.143831 -19.1409 68.5869 20.073 8.14682 25.2321 -3.49214 178.554 3.28433 1.87536 4.54188e-006 -4.6773e-006 -1.04537 -1.50755 -11.43 0.201819 -6.42456e-007 1.24004e-006 -0.165971 19.2176 68.7547 -20.1781 -8.12367 25.2334 3.48227 
